<?xml version="1.0" ?><!DOCTYPE svg  PUBLIC '-//W3C//DTD SVG 1.1//EN'  'http://www.w3.org/Graphics/SVG/1.1/DTD/svg11.dtd'><svg enable-background="new 0 0 512 512" height="512px" id="Layer_1" version="1.1" viewBox="0 0 512 512" width="512px" xml:space="preserve" xmlns="http://www.w3.org/2000/svg" xmlns:xlink="http://www.w3.org/1999/xlink"><g><path d="    M112.933,352.679c-26.474-33.325-42.284-75.503-42.284-121.375C70.648,123.44,158.088,36,265.95,36s195.297,87.44,195.297,195.303    c0,107.857-87.435,195.303-195.297,195.303c-25.656,0-50.157-4.952-72.597-13.943" fill="none" stroke="#000000" stroke-linecap="round" stroke-linejoin="round" stroke-miterlimit="10" stroke-width="8"/><path d="    M156.612,242.988c-2.548-3.208-4.07-7.269-4.07-11.685c0-10.384,8.417-18.802,18.801-18.802s18.801,8.418,18.801,18.802    s-8.417,18.802-18.801,18.802c-2.47,0-4.829-0.477-6.989-1.342" fill="none" stroke="#000000" stroke-linecap="round" stroke-linejoin="round" stroke-miterlimit="10" stroke-width="8"/><path d="    M247.944,242.988c-2.549-3.208-4.071-7.269-4.071-11.685c0-10.384,8.418-18.802,18.802-18.802    c10.383,0,18.801,8.418,18.801,18.802s-8.418,18.802-18.801,18.802c-2.471,0-4.828-0.477-6.989-1.342" fill="none" stroke="#000000" stroke-linecap="round" stroke-linejoin="round" stroke-miterlimit="10" stroke-width="8"/><path d="    M339.274,242.988c-2.549-3.208-4.07-7.269-4.07-11.685c0-10.384,8.417-18.802,18.8-18.802c10.385,0,18.803,8.418,18.803,18.802    s-8.418,18.802-18.803,18.802c-2.469,0-4.828-0.477-6.988-1.342" fill="none" stroke="#000000" stroke-linecap="round" stroke-linejoin="round" stroke-miterlimit="10" stroke-width="8"/><line fill="none" stroke="#000000" stroke-linecap="round" stroke-linejoin="round" stroke-miterlimit="10" stroke-width="8" x1="109.33" x2="50.751" y1="366.413" y2="480"/><line fill="none" stroke="#000000" stroke-linecap="round" stroke-linejoin="round" stroke-miterlimit="10" stroke-width="8" x1="182.928" x2="50.751" y1="421.324" y2="480"/></g></svg>